/* XPM */

static char *333102[] =

{

/* width height ncolors chars_per_pixel */

"16 16 6 1",

/* colors */

"A c None",

"B c #FFFF66660000",

"C c #DDDD00000000",

"D c #BBBBBBBBBBBB",

"E c #555555555555",

"F c #222222222222",

/* pixels */

"AAAAAEEEEEEAAAAA",

"AAAEEDDDDDDEEAAA",

"AAEDDDDBBDDDDEAA",

"AEDDDBBBBBDDDDEA",

"EDDDDBCCCBDDDDEF",

"EDDBBBCCCBBDDDEF",

"EDDBCCCCCCBBBDEF",

"EDDBBCCCCCCCBBEF",

"EDDDBCCCCCCCCBEF",

"EDBDBCCBBBBBCBEF",

"EDBBBCCCBDDBBDEF",

"EDBBCCCCBBDDDDEF",

"EDDBBBCCCBBDDDEF",

"EDDDDBBBBBBDDDEF",

"EEEEEEEEEEEEEEEF",

"AFFFFFFFFFFFFFFF",

};

