/* XPM */

static char *336623[] =

{

/* width height ncolors chars_per_pixel */

"32 32 3 1",

/* colors */

"A c #FFFFFFFFFFFF",

"B c #DDDD00000000",

"C c #00000000DDDD",

/* pixels */

"AAAAAAAAAAACCCCCCCCCCAAAAAAAAAAA",

"AAAAAAAAACCCAAAAAAAACCCAAAAAAAAA",

"AAAAAAACCAAAAAAAAAAAAAACCAAAAAAA",

"AAAAACCAAAAAAAAAAAAAAAAAACCAAAAA",

"AAAACCAAAAAAAAAAAAAAAAAAAACCAAAA",

"AAACCAAAAAAAAAAAAAAAAAAAAAACCAAA",

"AAACAAAAAAAAAAAAAAAAAAAAAAAACAAA",

"AACAAAAAABBBBBBBBBBBBBAAAAAAACAA",

"AACAAAAAABBBBBBBBBBBBBAAAAAAACAA",

"ACCAAAAAABAAABBBBBAAABAAAAAAACCA",

"ACAAAAAAAAAAAABBBAAAAAAAAAAAAACA",

"CCAAAAAAAAAAAABBBAAAAAAAAAAAAACC",

"CAAAAAAAAAAAAABBBAAAAAAAAAAAAAAC",

"CAAAAAAAAAAAAABBBAAAAAAAAAAAAAAC",

"CAAAAAAAAAAAAABBBAAAAAAAAAAAAAAC",

"CAAAAAAAAAAAAABBBAAAAAAAAAAAAAAC",

"CAAAAAAAAAAAAABBBAAAAAAAAAAAAAAC",

"CAAAAAAAAAAAAABBBAAAAAAAAAAAAAAC",

"CAAAAAAAAAAAAABBBAAAAAAAAAAAAAAC",

"CAAAAAAAAAAAAABBBAAAAAAAAAAAAAAC",

"CCAAAAAAAAAAAABBBAAAAAAAAAAAAACC",

"ACAAAAAAAAAAAABBBAAAAAAAAAAAAACA",

"ACCAAAAAABAAABBBBBAAABAAAAAAACCA",

"AACAAAAAABBBBBBBBBBBBBAAAAAAACAA",

"AACAAAAAABBBBBBBBBBBBBAAAAAAACAA",

"AAACAAAAAAAAAAAAAAAAAAAAAAAACAAA",

"AAACCAAAAAAAAAAAAAAAAAAAAAACCAAA",

"AAAACCAAAAAAAAAAAAAAAAAAAACCAAAA",

"AAAAACCAAAAAAAAAAAAAAAAAACCAAAAA",

"AAAAAAACCAAAAAAAAAAAAAACCAAAAAAA",

"AAAAAAAAACCCAAAAAAAACCCAAAAAAAAA",

"AAAAAAAAAAACCCCCCCCCCAAAAAAAAAAA",

};

