/* XPM */

static char *ge_icon_32x32[] =

{

/* width height ncolors chars_per_pixel */

"32 32 3 1",

/* colors */

"A c #FFFFFFFFFFFF",

"B c #FFFFFFFF0000",

"C c #DDDD00000000",

/* pixels */

"AAAAAAAAAAAAAAAAAAAAAAAAAAAAAAAA",

"AAAAACBABCBACAAAAAAAAAAAAAAAAAAA",

"AAAABABCCCABABAAACCBBCACAAAAAAAA",

"AAACACACCABCBCCAAAAABCABBACAAAAA",

"AAAABABBABCACBABAAAAAAACABABAAAA",

"AABCACACCCABBACCAAAAAAAABACACAAA",

"ACABACAAAACBCBACAAAAAAAACBABABAA",

"ACBCAAAAAAAABACBAAAAAAAAABBACAAA",

"ABCCAAAAAAAABCABCAAAAAAAAACACBCA",

"AAAAAAAAAAAACBACCAAAAAAAACBAACAA",

"ACBAAAAAAAAAABBBAAAAAAAAAAACBABA",

"AAAAAAAAAAAAAACCAAAAAAAAABABACAC",

"BACAAAAAAAAAAACCAAAAAAAAACBACABC",

"CAAAAAAAAAAAAAAAAAAAACACABABABCA",

"AAAAAAACACACAACCCCACABABBACACCAA",

"AAAAAACCABBABCCCCCCCACCABABBBAAA",

"AAACCAABAABCBACCCCAABBABACACCAAC",

"AAAABBBABCACCAACCCCACCACABCAAAAB",

"AACBBCBACAAAAAACACAACBBACAAAAAAC",

"ACCAACABACAAAAABCCAAACAAAAAAAAAB",

"AABBBACAAAAAAAABCAAAAAAAAAAAAACA",

"ACBAACCAAAAAAACACAAAAAAAAAAAAABC",

"AABBCAAAAAAAAABCCAAAAAAAAAAAACBC",

"AAACABCAAAAAAACABCBCBAAAAAACBABC",

"ACBABACAAAAAAABACCABABACABCBCBAA",

"ACBABABBACAAAAACBCABCABBBACABCCA",

"AAAACACACBCAAAAACCBCCABACBACBCAA",

"AAACBAABABCCAAAAACBCABCBAACCAAAA",

"AAAAABACBABBAAAAAACCBCABBCAAAAAA",

"AAAAAACACCAACAAAAAAACAACCAAAAAAA",

"AAAAAAAAAAABCBAAAAAAAAAAAAAAAAAA",

"AAAAAAAAAACABACBCAAAAAAAAAAAAAAA",

};

