/* XPM */
static char *czin_planet[] =
{
/* width height ncolors chars_per_pixel */
"16 16 4 1",
/* colors */
"A c #FFFFFFFF0000",
"B c #DEDEDEDEDEDE",
"C c #8C8C8C8C8C8C",
"D c #000000000000",
/* pixels */
"BBBBBBBBBBBBBBBB",
"BBBBBBBBBBBBBBBB",
"BBBBBBBBBBBBBBBB",
"BBBBBBBCBBBBBBBB",
"BBBBBBCCCBBBBBBB",
"BBBBBBCCCBBBBBBB",
"BBBBBCCACCBBBBBB",
"BBBBBCAAACBBBBBB",
"BBBBCAADAACBBBBB",
"BBBBCAADAACBBBBB",
"BBBCCAADAACCBBBB",
"BBBCCCAAACCCBBBB",
"BBCCCCCACCCCCBBB",
"BBCCCCCCCCCCCBBB",
"BBBBBBBBBBBBBBBB",
"BBBBBBBBBBBBBBBB",
};
