/* XPM */

static char *362760[] =

{

/* width height ncolors chars_per_pixel */

"32 32 5 1",

/* colors */

"A c #FFFFFFFFFFFF",

"B c #FFFFFFFF0000",

"C c #666633330000",

"D c #DDDD00000000",

"E c #000000000000",

/* pixels */

"AAAAAAAAAAAAAAAAAAAAAAAAAAAAAAAA",

"AAAAAAAAAAAAAAAAAAAAAAAAAAAAAAAA",

"AAAAAAAAAAAAAAAAAAAAAAAAAAAAAAAA",

"AAAAAAAAAAAAACCCCCCCAAAAAAAAAAAA",

"AAAAAAAAAAAACDDDDDDDCAAAAAAAAAAA",

"AAAAAAAAAAAACDDDDDDDCAAAAAAAAAAA",

"AAAAAAAAAAAAACDEEEDCAAAAAAAAAAAA",

"ACCCCCCCCCCCCCDDDDDCCCCCCCCCCCCC",

"AACBBBBBBBBBBBEDEDEBBBBBBBBBBBCA",

"AAACBEEEEEEEEBEDEDEBEEEEEEEEBCAA",

"AAAACBBBBBBBBBBEDEBBBBBBBBBBCAAA",

"AAAAACBEEEEEEEBEDEBEEEEEEEBCAAAA",

"AAAAAACBBBBBBBBBEBBBBBBBBBCAAAAA",

"AAAAAAACBEEEEEEBEBEEEEEEBCAAAAAA",

"AAAAAAAACBBBBBBBBBBBBBBBCAAAAAAA",

"AAAAAAAAACBEEEEEEEEEEEBCAAAAAAAA",

"AAAAAAAAAACBBBBBBBBBBBCAAAAAAAAA",

"AAAAAAAAAAACBEEEEEEEBCAAAAAAAAAA",

"AAAAAAAAAAAACBBBBBBBCAAAAAAAAAAA",

"AAAAAAAAAAAAACBEEEBCAAAAAAAAAAAA",

"AAAAAAAAAAAAAACBBBCAAAAAAAAAAAAA",

"AAAAAAAAAAAAACBCCCBCAAAAAAAAAAAA",

"AAAAAAAAAAAAACBBCBBCAAAAAAAAAAAA",

"AAAAAAAAAAAACBBBBBBBCAAAAAAAAAAA",

"AAAAAAAAAAAACBBBCBBBCAAAAAAAAAAA",

"AAAAAAAAAAAACBBBCBBBCAAAAAAAAAAA",

"AAAAAAAAAAACCBBBCBBBBCAAAAAAAAAA",

"AAAAAAAAAAACBBBBCBBBBCAAAAAAAAAA",

"AAAAAAAAAACCCCCCCCCCCCCAAAAAAAAA",

"AAAAAAAAAAAAAAAAAAAAAAAAAAAAAAAA",

"AAAAAAAAAAAAAAAAAAAAAAAAAAAAAAAA",

"AAAAAAAAAAAAAAAAAAAAAAAAAAAAAAAA",

};

