/* XPM */

static char *334315[] =

{

/* width height ncolors chars_per_pixel */

"16 16 7 1",

/* colors */

"A c #FFFFFFFFFFFF",

"B c #FFFFFFFF0000",

"C c #666633330000",

"D c #DDDD00000000",

"E c #BBBBBBBBBBBB",

"F c #555555555555",

"G c #222222222222",

/* pixels */

"AAAAAFFFFFFAAAAA",

"AAAFFEEEEEEFFAAA",

"AAFEEEEEEEEEEFAA",

"AFEEEEEEEEEEEEFA",

"FEEEEEDDDDEEEEFG",

"FECCCCCDDCCCCCFG",

"FEECBBBDDBBBCEFG",

"FEEECBBBBBBCEEFG",

"FEEEECBBBBCEEEFG",

"FEEEEECBBCEEEEFG",

"FEEEEEECCEEEEEFG",

"FEEEEECBBCEEEEFG",

"FEEEECBBBBCEEEFG",

"FEEEECCCCCCEEEFG",

"FFFFFFFFFFFFFFFG",

"AGGGGGGGGGGGGGGG",

};

