/* XPM */

static char *human_zero_planet[] =

{

/* width height ncolors chars_per_pixel */

"16 16 3 1",

/* colors */

"A c #00009999FFFF",

"B c #DDDDDDDDDDDD",

"C c #000000000000",

/* pixels */

"BBBBBBBBBBBBBBBB",

"BBBBBBBBBBBBBBBB",

"BBBBBBCCCCBBBBBB",

"BBBBCCAAAACCBBBB",

"BBBCCAAAAAACCBBB",

"BBBCAAACCAAACBBB",

"BBCAAACAACAAACBB",

"BBCAAACAACAAACBB",

"BBCAAACAACAAACBB",

"BBCAAACAACAAACBB",

"BBBCAAACCAAACBBB",

"BBBCCAAAAAACCBBB",

"BBBBCCAAAACCBBBB",

"BBBBBBCCCCBBBBBB",

"BBBBBBBBBBBBBBBB",

"BBBBBBBBBBBBBBBB",

};

