/* XPM */

static char *335020[] =

{

/* width height ncolors chars_per_pixel */

"16 16 7 1",

/* colors */

"A c #FFFFFFFFFFFF",

"B c #FFFF66660000",

"C c #DDDD00000000",

"D c #00000000DDDD",

"E c #BBBBBBBBBBBB",

"F c #555555555555",

"G c #222222222222",

/* pixels */

"AAAAAFFFFFFAAAAA",

"AAAFFEEEEEEFFAAA",

"AADDEBEEEEBEDDAA",

"AFDEEEBEEBEEEDFA",

"FEEEEEEBBEEEEEFG",

"FEBEEEEBBEEEEBFG",

"FEEBEEBEEBEEBEFG",

"FEEEBBECCEBBEEFG",

"FEEEBBECCEBBEEFG",

"FEEBEEBEEBEEBEFG",

"FEBEEEEBBEEEEBFG",

"FEEEEEEBBEEEEEFG",

"FEDEEEBEEBEEEDFG",

"FEDDEBEEEEBEDDFG",

"FFFFFFFFFFFFFFFG",

"AGGGGGGGGGGGGGGG",

};

