/* XPM */

static char *361000[] =

{

/* width height ncolors chars_per_pixel */

"32 32 4 1",

/* colors */

"A c #FFFFFFFFFFFF",

"B c #FFFFFFFF0000",

"C c #888888888888",

"D c #000000000000",

/* pixels */

"AAAAAAAAAAAAAAAAAAAAAAAAAAAAAAAA",

"AAAAAAAAAAAAAAAAAAAAAAAAAAAAAAAA",

"AAAAAAAAAAAAAAAAAAAAAAAAAAAAAAAA",

"AAAAAAAAAAAAAAADAAAAAAAAAAAAAAAA",

"AAAAAAAAAAAAAADCDAAAAAAAAAAAAAAA",

"AAAAAAAAAAAAAADCDAAAAAAAAAAAAAAA",

"AAAAAAAAAAAAADCCCDAAAAAAAAAAAAAA",

"AAAAAAAAAAAADCCCCCDAAAAAAAAAAAAA",

"AAAAAAAAAAAADCCCCCDAAAAAAAAAAAAA",

"AAAAAAAAAAADDCCCCCDDAAAAAAAAAAAA",

"AAAAAAAAAAADCCCCCCCDAAAAAAAAAAAA",

"AAAAAAAAAADCCCCCCCCCDAAAAAAAAAAA",

"AAAAAAAAAADCCDDDDDCCDAAAAAAAAAAA",

"AAAAAAAAADCDDBBBBBDDCDAAAAAAAAAA",

"AAAAAAAADDDBBBBDBBBBDDDAAAAAAAAA",

"AAAAAAAADDBBBBDDDBBBBDDAAAAAAAAA",

"AAAAAAADDBBBBBDDDBBBBBDDAAAAAAAA",

"AAAAAAADDBBBBDDDDDBBBBDDAAAAAAAA",

"AAAAAADDBBBBBDDDDDBBBBBDDAAAAAAA",

"AAAAADCDBBBBBDDDDDBBBBBDCDAAAAAA",

"AAAAADCDBBBBBDDDDDBBBBBDCDAAAAAA",

"AAAADDCDBBBBBDDDDDBBBBBDCDDAAAAA",

"AAAADCCDBBBBBDDDDDBBBBBDCCDAAAAA",

"AAADCCCDDBBBBDDDDDBBBBDDCCCDAAAA",

"AAADCCCCDBBBBBDDDBBBBBDCCCCDAAAA",

"AADDCCCCCDBBBBDDDBBBBDCCCCCDDAAA",

"ADDCCCCCCDDBBBBDBBBBDDCCCCCCDDAA",

"ADCCCCCCCCCDDBBBBBDDCCCCCCCCCDAA",

"DCCCCCCCCCCCDDDDDDDCCCCCCCCCCCDA",

"DDDDDDDDDDDDDDDDDDDDDDDDDDDDDDDA",

"AAAAAAAAAAAAAAAAAAAAAAAAAAAAAAAA",

"AAAAAAAAAAAAAAAAAAAAAAAAAAAAAAAA",

};

