/* XPM */
static char *332193[] =
{
/* width height ncolors chars_per_pixel */
"16 16 5 1",
/* colors */
"A c #FFFFFFFFFFFF",
"B c #FFFF00009999",
"C c #BBBBBBBBBBBB",
"D c #555555555555",
"E c #222222222222",
/* pixels */
"AAAAADDDDDDAAAAA",
"AAADDCCCCCCDDAAA",
"AADCCCBCCCCCCDAA",
"ADBCCCBBCCCBBCDA",
"DCBCCCCCBCBCCCDE",
"DCCBBBBCBCBCCCDE",
"DCCCCCBBBBBCCBDE",
"DCCCBBBBBBBCBCDE",
"DCCBCCBBBBCBCCDE",
"DCBCCBCBCBCCCCDE",
"DCCCBCCBCCBCCCDE",
"DCCCBCCCBCCBBCDE",
"DCCCBCCCBCCCCCDE",
"DCCCCCCBCCCCCCDE",
"DDDDDDDDDDDDDDDE",
"AEEEEEEEEEEEEEEE",
};
