/* XPM */
static char *348389[] =
{
/* width height ncolors chars_per_pixel */
"32 32 4 1",
/* colors */
"A c #FFFFFFFFFFFF",
"B c #FFFF66660000",
"C c #666633330000",
"D c #DDDD00000000",
/* pixels */
"AAAAAAAAAAAAAAAAAAAAAAAAAAAAAAAA",
"AAAAAAAAAAAAAAAAAAAAAAAAAAAAAAAA",
"AAAAAAAAAAAAAAAAAAAAAAAAAAAAAAAA",
"AAAAAAAAAAAAAAAAAAAAAAAAAAAAAAAA",
"AAAAAAAAAAAAAACCAAAAAAAAAAAAAAAA",
"AAAAAAAAAAAACCBBCCAAAAAAAAAAAAAA",
"AAAAAAAAAAAACBBBBCAAAAAAAAAAAAAA",
"AAAAAAAACCCCBBBBBBCAAAAAAAAAAAAA",
"AAAAAAACBBBBBBDBBBCAAAAAAAAAAAAA",
"AAAAAAACBBDBBBDDBBBCAAAAAAAAAAAA",
"AAAAAAACBBDDDDDDBBBBCAAACCCCAAAA",
"AAAAAAACCBBDDDDDDDBBBCCCBBBBCAAA",
"AAAAAAAACBBBDDDDDDDBBBBBBDBBCAAA",
"AAAAAAAACBBBDDDDDDDDDDDDDDBBCAAA",
"AAAAACCCCBBBDDDDDDDDDDDDDBBBCAAA",
"AAAACBBBBBBDDDDDDDDDDDDDBBBCAAAA",
"AACCBBBBDDDDDDDDDDDDDDDBBBCAAAAA",
"AACBBBBBBBBBBDDDDDDDDDDDBBCCAAAA",
"AACBBBDBBBBBBBDDDBBBBBBBDBBCAAAA",
"AACBBDBBCCCCCBBDDDBCCCBBBDBCCAAA",
"AACBBBBBCAAACBBBDDBCAACCBBBBCAAA",
"AAACCBBCAAAAACBBDDBBCAAACBBCAAAA",
"AAAAACCAAAAAACBBDDBBCAAACBBBCAAA",
"AAAAAAAAAAAAACBBDDBBCAAAACBBCAAA",
"AAAAAAAAAAAACBBBDBBBCAAAAACBCAAA",
"AAAAAAAAAAAACBBBBBBCAAAAAACCAAAA",
"AAAAAAAAAAAAACBBBBBCAAAAAAAAAAAA",
"AAAAAAAAAAAAAACBBBCAAAAAAAAAAAAA",
"AAAAAAAAAAAAACBBCCAAAAAAAAAAAAAA",
"AAAAAAAAAAAAACCCAAAAAAAAAAAAAAAA",
"AAAAAAAAAAAAAAAAAAAAAAAAAAAAAAAA",
"AAAAAAAAAAAAAAAAAAAAAAAAAAAAAAAA",
};
