/* XPM */
static char *bot_planet[] =
{
/* width height ncolors chars_per_pixel */
"16 16 4 1",
/* colors */
"A c #FFFFFFFF0000",
"B c #000066660000",
"C c #DDDDDDDDDDDD",
"D c #888888888888",
/* pixels */
"CCCCCCCCCCCCCCCC",
"CCCCCCCCCCCCCCCC",
"CCCCCBBBBBCCCCCC",
"CCCCBABABABCCCCC",
"CCCCBAAAAABCCCCC",
"CCCCCBBBBBCCCCCC",
"CCCCCCBBBCCCCCCC",
"CCCCCCBBBCCCCCCC",
"CCCBBBBBBBBBCCCC",
"CCDBBBAAABBBDCCC",
"CCDCCBAAABCCDCCC",
"CCCCCBBBBBCCCCCC",
"CCCCCBBBBBCCCCCC",
"CCCCCBBCBBCCCCCC",
"CCCCCCCCCCCCCCCC",
"CCCCCCCCCCCCCCCC",
};
