/* XPM */
static char *333447[] =
{
/* width height ncolors chars_per_pixel */
"16 16 7 1",
/* colors */
"A c #FFFFFFFFFFFF",
"B c #FFFFFFFF0000",
"C c #000066660000",
"D c #BBBBBBBBBBBB",
"E c #888888888888",
"F c #555555555555",
"G c #222222222222",
/* pixels */
"AAAAAFFFFFFAAAAA",
"AAAFFDDDDDDFFAAA",
"AAFDDCCCCCDDDFAA",
"AFDDCBCBCBCDDDFA",
"FDDDCBBBBBCDDDFG",
"FDDDDCCCCCDDDDFG",
"FDDDDDCCCDDDDDFG",
"FDDDDDCCCDDDDDFG",
"FDDCCCCCCCCCDDFG",
"FDECCCBBBCCCEDFG",
"FDEDDCBBBCDDEDFG",
"FDDDDCCCCCDDDDFG",
"FDDDDCCCCCDDDDFG",
"FDDDDCCDCCDDDDFG",
"FFFFFFFFFFFFFFFG",
"AGGGGGGGGGGGGGGG",
};
