/* XPM */
static char *353410[] =
{
/* width height ncolors chars_per_pixel */
"32 32 4 1",
/* colors */
"A c #FFFFFFFFFFFF",
"B c #FFFFFFFF0000",
"C c #000066660000",
"D c #000000000000",
/* pixels */
"AAAAAAAAAAAAAAAAAAAAAAAAAAAAAAAA",
"AAAAAAAAAAAAAAAAAAAAAAAAAAAAAAAA",
"AAAAAAAAAAADDDDDDDDDDDAAAAAAAAAA",
"AAAAAAAAAADBBBBBBBBBBBDAAAAAAAAA",
"AAAAAAAAAADBBDDBBBDDBBDAAAAAAAAA",
"AAAAAAAAAADBBDDBBBDDBBDAAAAAAAAA",
"AAAAAAAAAADBBBBBBBBBBBDAAAAAAAAA",
"AAAAAAAAAAADDDDDDDDDDDAAAAAAAAAA",
"AAAAAAAAAAAAAADDDDDAAAAAAAAAAAAA",
"AAAAAAAAAAAAAADDDDDAAAAAAAAAAAAA",
"AAAAAAAADDDDDDDDDDDDDDDDDAAAAAAA",
"AAAAAAADDDCCCCCCCCCCCCCDDDAAAAAA",
"AAAAAADDDDCCCCCCCCCCCCCDDDDAAAAA",
"AAAAADDDADCCCBBBBBBBCCCDADDDAAAA",
"AAAADDDAADCCCBBBBBBBCCCDAADDDAAA",
"AAADDDAAADCCCBBBBBBBCCCDAAADDDAA",
"AAADDDAAADCCCBBBBBBBCCCDAAADDDAA",
"AAAAAAAAADCCCBBBBBBBCCCDAAAAAAAA",
"AAAAAAAAADCCCCCCCCCCCCCDAAAAAAAA",
"AAAAAAAAADCCCCCCCCCCCCCDAAAAAAAA",
"AAAAAAAAADCCCCCCCCCCCCCDAAAAAAAA",
"AAAAAAAAADCCCCCCCCCCCCCDAAAAAAAA",
"AAAAAAAAADCCCCCCCCCCCCCDAAAAAAAA",
"AAAAAAAAADCCCCCCCCCCCCCDAAAAAAAA",
"AAAAAAAAADDDDDDDDDDDDDDDAAAAAAAA",
"AAAAAAAAAAADDDDAAADDDDAAAAAAAAAA",
"AAAAAAAAAAADDDDAAADDDDAAAAAAAAAA",
"AAAAAAAAAAADDDDAAADDDDAAAAAAAAAA",
"AAAAAAAAAAADDDDAAADDDDAAAAAAAAAA",
"AAAAAAAAAADDDDDDADDDDDDAAAAAAAAA",
"AAAAAAAAAADDDDDDADDDDDDAAAAAAAAA",
"AAAAAAAAAAAAAAAAAAAAAAAAAAAAAAAA",
};
