/* XPM */
static char *356444[] =
{
/* width height ncolors chars_per_pixel */
"32 32 4 1",
/* colors */
"A c #FFFFFFFFFFFF",
"B c #000066660000",
"C c #DDDD00000000",
"D c #000000000000",
/* pixels */
"AAAAAAAAAAAAAAAAAAAAAAAAAAAAAAAA",
"AAAAAAAAAAAAABBBBBBAAAAAAAAAAAAA",
"AAAAAAAAAAAABBBBBBBBAAAAAAAAAAAA",
"AAAAAAAABAAAAAABBAAAAAABAAAAAAAA",
"AAAAAABBBBADDDDDDDDDDABBBBAAAAAA",
"AAAAAABBBBDAAAAAAAAAADBBBBAAAAAA",
"AAAAABBBBDAADDAAAADDAADBBBBAAAAA",
"AAAAAABBADAAAAACCAAAAADABBAAAAAA",
"AAAAAAAAAADDDDACCADDDDAAAAAAAAAA",
"AAAAAAAAAAAAAADAADAAAAAAAAAAAAAA",
"AAAAAAAAAAAAAAADDAAAAAAAAAAAAAAA",
"AAAAAAAAAAAAAAADDAAAAAAAAAAAAAAA",
"AAAAAAAAAAAAAAADDAAAAAAAAAAAAAAA",
"AAAAAAAAAAAACCCCCCCCAAAAAAAAAAAA",
"AAAAAAAAAACCCCCCCCCCCCAAAAAAAAAA",
"AAAAAAAACCCCCCCAACCCCCCCAAAAAAAA",
"AAAAAACCCCCCCCCCCCCCCCCCCCAAAAAA",
"AAAAACCCCCCCCCCAACCCCCCCCCCAAAAA",
"AAAAAACCCCCCCCCCCCCCCCCCCCAAAAAA",
"AAAAAAAACCCCCCCAACCCCCCCAAAAAAAA",
"AAAAAAAAAACCCCCCCCCCCCAAAAAAAAAA",
"AAAAAAAAAAAACCCCCCCCAAAAAAAAAAAA",
"AAAAAAAAAAAAADDAAADDAAAAAAAAAAAA",
"AAAAAAAAAAAAADDAAADDAAAAAAAAAAAA",
"AAAAAAAAAAAADDAAAAADDAAAAAAAAAAA",
"AAAAAAAAAAAADDAAAAADDAAAAAAAAAAA",
"AAAAAAAAAAADDAAAAAAADDAAAAAAAAAA",
"AAAAAAAAAAADDAAAAAAADDAAAAAAAAAA",
"AAAAAADDAADDAAAAAAAAADDAADDAAAAA",
"AAAAADDDDADDAAAAAAAAADDADDDDAAAA",
"AAAAADDDDDDDAAAAAAAAADDDDDDDAAAA",
"AAAAADDDDDDDAAAAAAAAADDDDDDDAAAA",
};
