/* XPM */
static char *333859[] =
{
/* width height ncolors chars_per_pixel */
"16 16 7 1",
/* colors */
"A c #FFFFFFFFFFFF",
"B c #000066660000",
"C c #DDDD00000000",
"D c #BBBBBBBBBBBB",
"E c #555555555555",
"F c #222222222222",
"G c #000000000000",
/* pixels */
"AAAAAEEEEEEAAAAA",
"AAAEEDDDDDDEEAAA",
"AAEDDDDDDDDDDEAA",
"AEDDDDDBBDDDDDEA",
"EDDDDBBGGBBDDDEF",
"EDDDDDDCCDDDDDEF",
"EDDDDCCCCCCDDDEF",
"EDDCCCCCCCCCCDEF",
"EDCCCCCCCCCCCCEF",
"EDDCCCCCCCCCCDEF",
"EDDDDDCDDCDDDDEF",
"EDDDDCDDDDCDDDEF",
"EDDDCDDDDDDCDDEF",
"EDDCCDDDDDDCCDEF",
"EEEEEEEEEEEEEEEF",
"AFFFFFFFFFFFFFFF",
};
