/* XPM */
static char *337328[] =
{
/* width height ncolors chars_per_pixel */
"32 32 3 1",
/* colors */
"A c #FFFFFFFFFFFF",
"B c #00009999FFFF",
"C c #000000000000",
/* pixels */
"AAAAAAAAAAACCCCCCCCCCAAAAAAAAAAA",
"AAAAAAAAACCCBBCBBCBBCCCAAAAAAAAA",
"AAAAAAACCBCBBCBBBBCBBCBCCAAAAAAA",
"AAAAACCBBBBBBBBBBBBBBBBBBCCAAAAA",
"AAAACCBBCBBBBCBBBBCBBBBCBBCCAAAA",
"AAACCBBBBBBBBBBBBBBBBBBBBBBCCAAA",
"AAACBBBCBBBBBCBBBBCBBBBBCBBBCAAA",
"AACBBBBBBBBBBBBBBBBBBBBBBBBBBCAA",
"AACBBBCBBBBBCBBBBBBCBBBBBCBBBCAA",
"ACCBBBBBBCBCBCBCBCBBBCBCBBBBBCCA",
"ACBCBCBCBBBBCBBBBBBCBBBBCBCBCBCA",
"CCBBBBCBBBBBBBBBBBBBBBBBBCBBBBCC",
"CBBBBBBBBBBBCBBBBBBCBBBBBBBBBBBC",
"CBBBBBCBBBBBBBBBBBBBBBBBBCBBBBBC",
"CBBBBBBBBBBBCBBBBBBCBBBBBBBBBBBC",
"CCBCBCBCBCBCBCBCBCBBBCBCBCBCBCBC",
"CBBBBBBBBBBBCBBBBBBCBBBBBBBBBBBC",
"CBBBBBCBBBBBBBBBBBBBBBBBBCBBBBBC",
"CBBBBBBBBBBBCBBBBBBCBBBBBBBBBBBC",
"CBBBBBCBBBBBBBBBBBBBBBBBBCBBBBBC",
"CCBBBBBBBBBBCBBBBBBCBBBBBBBBBBCC",
"ACBCBCBBBBBBBBBBBBBBBBBBBBCBCBCA",
"ACCBBBBCBCBCBCBCBCBCBCBCBCBBBCCA",
"AACBBBCBBBBBCBBBBBBCBBBBBBBBBCAA",
"AACBBBBBBBBBBBBBBBBBBBBBBBBBBCAA",
"AAACBBBCBBBBBCBBBBCBBBBBCBBBCAAA",
"AAACCBBBBBBBBBBBBBBBBBBBBBBCCAAA",
"AAAACCBBCBBBBCBBBBCBBBBCBBCCAAAA",
"AAAAACCBBBBBBBBBBBBBBBBBBCCAAAAA",
"AAAAAAACCBCBBCBBBBCBBCBCCAAAAAAA",
"AAAAAAAAACCCBBCBBCBBCCCAAAAAAAAA",
"AAAAAAAAAAACCCCCCCCCCAAAAAAAAAAA",
};
