/* XPM */
static char *335428[] =
{
/* width height ncolors chars_per_pixel */
"16 16 7 1",
/* colors */
"A c #FFFFFFFFFFFF",
"B c #FFFF66660000",
"C c #666633330000",
"D c #BBBBBBBBBBBB",
"E c #555555555555",
"F c #222222222222",
"G c #000000000000",
/* pixels */
"AAAAAEEEEEEAAAAA",
"AAAEEDDDDDDEEAAA",
"AAEDDDDDDDDDDEAA",
"AEDDDDDDDDDDDDEA",
"EDDDDDDDDDDDDDEF",
"EDDDDDDDDDDDDDEF",
"EDDGGGDDDDGGGDEF",
"EDGCCGGDDGGCCGEF",
"EGCBBCGDDGCBBCGF",
"EGCBBBGGGGBBBCGF",
"EDGGGCCGGCCGGGEF",
"EDDDGCCCCCCGDDEF",
"EDDGGCCCCCCGGDEF",
"EDDGGGGGGGGGGDEF",
"EEEEEEEEEEEEEEEF",
"AFFFFFFFFFFFFFFF",
};
