/* XPM */
static char *365257[] =
{
/* width height ncolors chars_per_pixel */
"32 32 4 1",
/* colors */
"A c #FFFFFFFFFFFF",
"B c #FFFF66660000",
"C c #666633330000",
"D c #000000000000",
/* pixels */
"AAAAAAAAAAAAAAAAAAAAAAAAAAAAAAAA",
"AAAAAAAAAAAAAAAAAAAAAAAAAAAAAAAA",
"AAAAAAAAAAAAAAAAAAAAAAAAAAAAAAAA",
"AAAAAAAAAAAAAAAAAAAAAAAAAAAAAAAA",
"AAAAAAAAAAAAAAAAAAAAAAAAAAAAAAAA",
"AAAAAAAAAAAAAAAAAAAAAAAAAAAAAAAA",
"AAAAAAAAAAAAAAAAAAAAAAAAAAAAAAAA",
"AAAADDDDDAAAAAAAAAAAAAAADDDDDAAA",
"AAADCCCCCDAAAAAAAAAAAAADCCCCCDAA",
"AADCCBBBCCDAAAAAAAAAAADCCBBBCCDA",
"ADCCBBBBBCCDAAAAAAAAADCCBBBBBCCD",
"ADCBBBBBBBCDAAAAAAAAADCBBBBBBBCD",
"ADCBBBBBBBCDAAAAAAAAADCBBBBBBBCD",
"ADCCBBBBBBCDADDDDDDDADCBBBBBBCCD",
"AADCCBBBBCCCDCCCCCCCDCCCBBBBCCDA",
"AAADCCCCCCCCCCCCCCCCCCCCCCCCCDAA",
"AAAADDDCCCCCCCCCCCCCCCCCCCDDDAAA",
"AAAAAAADCCCCCCCCCCCCCCCCCDAAAAAA",
"AAAAAAADCCCCCCCCCCCCCCCCCDAAAAAA",
"AAAAAADCCCCCCCCCCCCCCCCCCCDAAAAA",
"AAAAAADCCCCCCCCCCCCCCCCCCCDAAAAA",
"AAAAADCCCCCCCCCCCCCCCCCCCCCDAAAA",
"AAAAADDDDDDDDDDDDDDDDDDDDDDDAAAA",
"AAAAAAAAAAAAAAAAAAAAAAAAAAAAAAAA",
"AAAAAAAAAAAAAAAAAAAAAAAAAAAAAAAA",
"AAAAAAAAAAAAAAAAAAAAAAAAAAAAAAAA",
"AAAAAAAAAAAAAAAAAAAAAAAAAAAAAAAA",
"AAAAAAAAAAAAAAAAAAAAAAAAAAAAAAAA",
"AAAAAAAAAAAAAAAAAAAAAAAAAAAAAAAA",
"AAAAAAAAAAAAAAAAAAAAAAAAAAAAAAAA",
"AAAAAAAAAAAAAAAAAAAAAAAAAAAAAAAA",
"AAAAAAAAAAAAAAAAAAAAAAAAAAAAAAAA",
};
