/* XPM */
static char *366586[] =
{
/* width height ncolors chars_per_pixel */
"32 32 4 1",
/* colors */
"A c #FFFFFFFFFFFF",
"B c #FFFF66660000",
"C c #DDDD00000000",
"D c #00000000DDDD",
/* pixels */
"AAAAAAAAAAAAAAAAAAAAAAAAAAAAAAAA",
"AAAAAAAAAAAAAAAAAAAAAAAAAAAAAAAA",
"AAAAAAAAAAAAAAAAAAAAAAAAAAAAAAAA",
"AAADDAAAAAAAAAAAAAAAAAAAAADDAAAA",
"AAADDABBBBBBBAAAAABBBBBBBADDAAAA",
"AAAAAAAAAAAAABAAABAAAAAAAAAAAAAA",
"AAAABAAAAAAAAABABAAAAAAAAABAAAAA",
"AAAABAAAAAAAAAABAAAAAAAAAABAAAAA",
"AAAABAAAAAAAAABABAAAAAAAAABAAAAA",
"AAAABAAAAAAAABAAABAAAAAAAABAAAAA",
"AAAABAAAAAAABAAAAABAAAAAAABAAAAA",
"AAAABAAAAAABAAAAAAABAAAAAABAAAAA",
"AAAABAAAAABAAACCCAAABAAAAABAAAAA",
"AAAAABAAABAAACCCCCAAABAAABAAAAAA",
"AAAAAABABAAACCCCCCCAAABABAAAAAAA",
"AAAAAAABAAAACCCCCCCAAAABAAAAAAAA",
"AAAAAABABAAACCCCCCCAAABABAAAAAAA",
"AAAAABAAABAAACCCCCAAABAAABAAAAAA",
"AAAABAAAAABAAACCCAAABAAAAABAAAAA",
"AAAABAAAAAABAAAAAAABAAAAAABAAAAA",
"AAAABAAAAAAABAAAAABAAAAAAABAAAAA",
"AAAABAAAAAAAABAAABAAAAAAAABAAAAA",
"AAAABAAAAAAAAABABAAAAAAAAABAAAAA",
"AAAABAAAAAAAAAABAAAAAAAAAABAAAAA",
"AAAABAAAAAAAAABABAAAAAAAAABAAAAA",
"AAAAAAAAAAAAABAAABAAAAAAAAAAAAAA",
"AAADDABBBBBBBAAAAABBBBBBBADDAAAA",
"AAADDAAAAAAAAAAAAAAAAAAAAADDAAAA",
"AAAAAAAAAAAAAAAAAAAAAAAAAAAAAAAA",
"AAAAAAAAAAAAAAAAAAAAAAAAAAAAAAAA",
"AAAAAAAAAAAAAAAAAAAAAAAAAAAAAAAA",
"AAAAAAAAAAAAAAAAAAAAAAAAAAAAAAAA",
};
