/* XPM */
static char *nuke_planet[] =
{
/* width height ncolors chars_per_pixel */
"16 16 5 1",
/* colors */
"A c #FFFFFFFFFFFF",
"B c #FFFF66660000",
"C c #DDDD00000000",
"D c #00000000DDDD",
"E c #DDDDDDDDDDDD",
/* pixels */
"EEEEEEEEEEEEEEEE",
"EEEEEEEEEEEEEEEE",
"EEDDEBEEEEBEDDEE",
"EEDEEEBEEBEEEDEE",
"EEEEEEEBBEEEEEEE",
"EEBEEEEBBEEEEBEE",
"EEEBEEBAABEEBEEE",
"EEEEBBACCABBEEEE",
"EEEEBBACCABBEEEE",
"EEEBEEBAABEEBEEE",
"EEBEEEEBBEEEEBEE",
"EEEEEEEBBEEEEEEE",
"EEDEEEBEEBEEEDEE",
"EEDDEBEEEEBEDDEE",
"EEEEEEEEEEEEEEEE",
"EEEEEEEEEEEEEEEE",
};
