/* XPM */

static char *350893[] =

{

/* width height ncolors chars_per_pixel */

"32 32 3 1",

/* colors */

"A c #FFFFFFFFFFFF",

"B c #FFFF00009999",

"C c #000000000000",

/* pixels */

"AAAAAAAAAAAAAAAAAAAAAAAAAAAAAAAA",

"AAAAAAAAAAAAAAAAAAAAAAAAAAAAAAAA",

"AAAAAAAAAAAAAABAAAAAAAAAAAAAAAAA",

"AAAAAAAAAAAAAABAAAAAAAAAAAAAAAAA",

"AAAABAAAAAAAAAABAAAAAAAAAAABAAAA",

"AAAAABAAAAAAAAACAAAAAAAAACBBAAAA",

"AAAAABAAAAAAACCAAAAAAAAACCAAAAAA",

"AAAACAAAAAAAACAAAAAAAAAACAAAAAAA",

"AAAACAAAAAAAACAAAAAAAAACCAAAAAAA",

"AAAACCAAAAAAAACAAAAAAAACAAAAAAAA",

"AAAAACCAAAAAAACCAAAAAACCAAAAAAAA",

"AAAAAACCAAAAAAACAAAAAACAAAAAAAAA",

"AAAAAAACCAAAAACCCCAACCCAAAAAAAAA",

"AAAAAAAACCAAACBBBBCCCAAAAAAAAAAA",

"AAAAAAAAACCCCBBBBBBCAAAAAAAAAAAA",

"AAAAAAAAAAAACBBBBBBBCAAAAAAABBAA",

"AAAAAACCCCACBBBBBBBBCCCAAAAABAAA",

"AAAAACCAACCCBBBBBBBBCACCCAAACAAA",

"AABBBCAAAAAACBBBBBBCAAAAACCCAAAA",

"AAAAAAAAAACCCCCCCCCCAAAAAAAAAAAA",

"AAAAAAAAAACAAAAACAACCAAAAAAAAAAA",

"AAAAAAAAACCAAAACCAAACAAAAAAAAAAA",

"AAAAAAAAACAAAACCAAAACAAAAAAAAAAA",

"AAAAAAAACCAAACCAAAAACCAAAAAAAAAA",

"AAAAAAAACAAAAACAAAAAACAAAAAAAAAA",

"AAAAAAAACAAAAACCAAAAACCAAAAABAAA",

"AAAAAAAABAAAAAACBAAAAACCCBBBAAAA",

"AAAAAABBAAAAAAAABBAAAAAAAAAAAAAA",

"AAAAAAAAAAAAAAAAAAAAAAAAAAAAAAAA",

"AAAAAAAAAAAAAAAAAAAAAAAAAAAAAAAA",

"AAAAAAAAAAAAAAAAAAAAAAAAAAAAAAAA",

"AAAAAAAAAAAAAAAAAAAAAAAAAAAAAAAA",

};

