/* XPM */

static char *334099[] =

{

/* width height ncolors chars_per_pixel */

"16 16 7 1",

/* colors */

"A c None",

"B c #FFFFFFFF0000",

"C c #BBBBBBBBBBBB",

"D c #888888888888",

"E c #555555555555",

"F c #222222222222",

"G c #000000000000",

/* pixels */

"AAAAAEEEEEEAAAAA",

"AAAEECCCCCCEEAAA",

"AAECCCCCCCCCCEAA",

"AECCCCCDCCCCCCEA",

"ECCCCCDDDCCCCCEF",

"ECCCCCDDDCCCCCEF",

"ECCCCDDBDDCCCCEF",

"ECCCCDBBBDCCCCEF",

"ECCCDBBGBBDCCCEF",

"ECCCDBBGBBDCCCEF",

"ECCDDBBGBBDDCCEF",

"ECCDDDBBBDDDCCEF",

"ECDDDDDBDDDDDCEF",

"ECDDDDDDDDDDDCEF",

"EEEEEEEEEEEEEEEF",

"AFFFFFFFFFFFFFFF",

};

