/* XPM */
static char * mutants_planet_xpm[] = {
"16 16 4 1",
" 	c None",
".	c #000000",
"+	c #663300",
"@	c #FF6600",
"                ",
"                ",
"                ",
"                ",
"   ...    ...   ",
"  .++..  ..++.  ",
" .+@@+.  .+@@+. ",
" .+@@@....@@@+. ",
"  ...++..++...  ",
"    .++++++.    ",
"   ..++++++..   ",
"   ..........   ",
"                ",
"                ",
"                ",
"                "};
